<mxfile host="app.diagrams.net" modified="2023-04-28T13:41:49.176Z" agent="Mozilla/5.0 (Windows NT 10.0; Win64; x64) AppleWebKit/537.36 (KHTML, like Gecko) Chrome/112.0.0.0 Safari/537.36" etag="RNjb24lBOuA_dMdBzjju" version="21.2.3" type="device">
  <diagram name="PÃ¡gina-1" id="Tct3sQC-_zYmSoTU0RFc">
    <mxGraphModel dx="787" dy="1218" grid="1" gridSize="10" guides="1" tooltips="1" connect="1" arrows="1" fold="1" page="1" pageScale="1" pageWidth="827" pageHeight="1169" math="0" shadow="0">
      <root>
        <mxCell id="0" />
        <mxCell id="1" parent="0" />
        <mxCell id="2MmB4SwI1Fr6mGwq4i6G-4" value="" style="rounded=0;whiteSpace=wrap;html=1;shadow=1;glass=0;sketch=1;curveFitting=1;jiggle=2;" vertex="1" parent="1">
          <mxGeometry x="40" y="40" width="560" height="640" as="geometry" />
        </mxCell>
        <mxCell id="2MmB4SwI1Fr6mGwq4i6G-5" value="&lt;p style=&quot;font-size: 25px;&quot;&gt;&lt;font style=&quot;font-size: 25px;&quot;&gt;&quot;This is the default stream ... ... ... ... ... ... ... ... ... ... ... ... ...[EOF]&quot;&lt;/font&gt;&lt;/p&gt;" style="rounded=0;whiteSpace=wrap;html=1;align=left;fontFamily=Courier New;fontStyle=1;verticalAlign=middle;strokeWidth=1;perimeterSpacing=0;fontSize=25;horizontal=1;spacingTop=0;spacing=15;shadow=1;glass=0;sketch=1;curveFitting=1;jiggle=2;" vertex="1" parent="1">
          <mxGeometry x="80" y="80" width="480" height="160" as="geometry" />
        </mxCell>
        <mxCell id="2MmB4SwI1Fr6mGwq4i6G-6" value="&lt;p style=&quot;font-size: 25px;&quot;&gt;&quot;This is the first alternate stream&amp;nbsp; ... ... ... ... ... ... ... ... ... ... ...[EOF]&quot;&lt;br style=&quot;font-size: 25px;&quot;&gt;&lt;/p&gt;" style="rounded=0;whiteSpace=wrap;html=1;align=left;fontFamily=Courier New;fontStyle=1;verticalAlign=middle;strokeWidth=2;perimeterSpacing=0;fontSize=25;horizontal=1;spacing=15;fillColor=#f5f5f5;fontColor=#333333;strokeColor=#666666;sketch=1;curveFitting=1;jiggle=2;shadow=0;glass=1;opacity=60;" vertex="1" parent="1">
          <mxGeometry x="80" y="280" width="480" height="160" as="geometry" />
        </mxCell>
        <mxCell id="2MmB4SwI1Fr6mGwq4i6G-7" value="&lt;p style=&quot;font-size: 25px;&quot;&gt;&quot;This is the second alternate stream&amp;nbsp; ... ... ... ... ... ... ... ... ... ... ...[EOF]&quot;&lt;br style=&quot;font-size: 25px;&quot;&gt;&lt;/p&gt;" style="rounded=0;whiteSpace=wrap;html=1;align=left;fontFamily=Courier New;fontStyle=1;verticalAlign=middle;strokeWidth=2;perimeterSpacing=0;fontSize=25;horizontal=1;spacing=15;opacity=60;fillColor=#f5f5f5;fontColor=#333333;strokeColor=#666666;sketch=1;curveFitting=1;jiggle=2;shadow=0;glass=1;" vertex="1" parent="1">
          <mxGeometry x="80" y="480" width="480" height="160" as="geometry" />
        </mxCell>
        <mxCell id="2MmB4SwI1Fr6mGwq4i6G-8" value="" style="shape=curlyBracket;whiteSpace=wrap;html=1;rounded=1;flipH=1;labelPosition=right;verticalLabelPosition=middle;align=left;verticalAlign=middle;size=0.5;shadow=1;strokeWidth=2;" vertex="1" parent="1">
          <mxGeometry x="620" y="40" width="40" height="640" as="geometry" />
        </mxCell>
        <mxCell id="2MmB4SwI1Fr6mGwq4i6G-9" value="File" style="text;html=1;align=center;verticalAlign=middle;resizable=0;points=[];autosize=1;strokeColor=none;fillColor=none;shadow=0;rounded=0;glass=0;perimeterSpacing=0;strokeWidth=1;fontSize=25;fontFamily=Courier New;fontStyle=1" vertex="1" parent="1">
          <mxGeometry x="660" y="340" width="80" height="40" as="geometry" />
        </mxCell>
      </root>
    </mxGraphModel>
  </diagram>
</mxfile>
